<svg xmlns="http://www.w3.org/2000/svg" width="240" height="240" viewBox="0 0 240 240" fill="none">
  <title>후보를 기다리는 보관 카드</title>
  <defs>
    <linearGradient id="blue" x1="0" y1="0" x2="1" y2="1">
      <stop stop-color="#78B9FF"/>
      <stop offset=".52" stop-color="#3182F6"/>
      <stop offset="1" stop-color="#1B64DA"/>
    </linearGradient>
    <linearGradient id="paper" x1="0" y1="0" x2="1" y2="1">
      <stop stop-color="#EAF3FF"/>
      <stop offset=".7" stop-color="#DCEBFF"/>
      <stop offset="1" stop-color="#AACCF6"/>
    </linearGradient>
  </defs>
  <g stroke-linecap="round" stroke-linejoin="round">
    <rect x="71" y="39" width="112" height="161" rx="21" transform="rotate(8 127 119)" fill="#C9DDF7"/>
    <rect x="51" y="48" width="132" height="156" rx="22" fill="#AACCF6"/>
    <rect x="45" y="42" width="132" height="156" rx="22" fill="url(#paper)"/>
    <path d="M55 63a13 13 0 0 1 13-13h55" fill="none" stroke="#FFFFFF" stroke-width="3" stroke-opacity=".45"/>
    <path d="M68 82h27m-27 18h48" stroke="#9EBFE9" stroke-width="6"/>
    <rect x="67" y="123" width="71" height="48" rx="10" stroke="#9EBFE9" stroke-width="3" stroke-dasharray="4 8" fill="none"/>
    <path d="M150 38h29a9 9 0 0 1 9 9v72l-23-14-24 14V47a9 9 0 0 1 9-9Z" fill="#1B64DA"/>
    <path d="M145 32h29a9 9 0 0 1 9 9v72l-23-14-24 14V41a9 9 0 0 1 9-9Z" fill="url(#blue)"/>
    <path d="M147 53v34l13-8 12 8V53Z" stroke="#FFFFFF" stroke-width="3" fill="none"/>
  </g>
</svg>
