<svg xmlns="http://www.w3.org/2000/svg" width="240" height="240" viewBox="0 0 240 240" fill="none">
  <title>함께 여행할 동행자 초대</title>
  <defs>
    <linearGradient id="blue" x1="0" y1="0" x2="1" y2="1">
      <stop stop-color="#A3CBFF"/>
      <stop offset=".52" stop-color="#7AA7FF"/>
      <stop offset="1" stop-color="#477FD6"/>
    </linearGradient>
    <linearGradient id="paper" x1="0" y1="0" x2="1" y2="1">
      <stop stop-color="#42628C"/>
      <stop offset=".7" stop-color="#2B4568"/>
      <stop offset="1" stop-color="#203653"/>
    </linearGradient>
  </defs>
  <g stroke-linecap="round" stroke-linejoin="round">
    <circle cx="157" cy="86" r="25" fill="#203653"/>
    <circle cx="152" cy="81" r="25" fill="url(#paper)"/>
    <path d="M119 180v-22a38 38 0 0 1 76 0v22a14 14 0 0 1-14 14h-48a14 14 0 0 1-14-14Z" fill="#203653"/>
    <path d="M114 175v-22a38 38 0 0 1 76 0v22a14 14 0 0 1-14 14h-48a14 14 0 0 1-14-14Z" fill="url(#paper)"/>
    <path d="M126 145a27 27 0 0 1 26-20" stroke="#E9F3FF" stroke-opacity=".45" stroke-width="3"/>
    <circle cx="86" cy="79" r="29" fill="#345F9A"/>
    <circle cx="81" cy="74" r="29" fill="url(#blue)"/>
    <path d="M62 69a20 20 0 0 1 19-14" stroke="#E9F3FF" stroke-opacity=".45" stroke-width="3"/>
    <path d="M43 188v-24a43 43 0 0 1 86 0v24a16 16 0 0 1-16 16H59a16 16 0 0 1-16-16Z" fill="#345F9A"/>
    <path d="M38 183v-24a43 43 0 0 1 86 0v24a16 16 0 0 1-16 16H54a16 16 0 0 1-16-16Z" fill="url(#blue)"/>
    <path d="M50 157a31 31 0 0 1 31-31" stroke="#E9F3FF" stroke-opacity=".45" stroke-width="3"/>
    <circle cx="183" cy="56" r="24" fill="#345F9A"/>
    <circle cx="179" cy="52" r="24" fill="url(#blue)"/>
    <path d="M169 52h20m-10-10v20" stroke="#E9F3FF" stroke-width="5"/>
  </g>
</svg>
