<svg xmlns="http://www.w3.org/2000/svg" width="240" height="240" viewBox="0 0 240 240" fill="none">
  <title>같은 기준으로 나란히 보는 여행안</title>
  <defs>
    <linearGradient id="blue" x1="0" y1="0" x2="1" y2="1">
      <stop stop-color="#A3CBFF"/>
      <stop offset=".52" stop-color="#7AA7FF"/>
      <stop offset="1" stop-color="#477FD6"/>
    </linearGradient>
    <linearGradient id="paper" x1="0" y1="0" x2="1" y2="1">
      <stop stop-color="#42628C"/>
      <stop offset=".7" stop-color="#2B4568"/>
      <stop offset="1" stop-color="#203653"/>
    </linearGradient>
  </defs>
  <g stroke-linecap="round" stroke-linejoin="round">
    <rect x="28" y="54" width="88" height="137" rx="18" fill="#203653"/>
    <rect x="22" y="48" width="88" height="137" rx="18" fill="url(#paper)"/>
    <rect x="134" y="54" width="88" height="137" rx="18" fill="#203653"/>
    <rect x="128" y="48" width="88" height="137" rx="18" fill="url(#paper)"/>
    <path d="M32 68a10 10 0 0 1 10-10h42m54 10a10 10 0 0 1 10-10h42" stroke="#E9F3FF" stroke-opacity=".45" stroke-width="3"/>
    <rect x="38" y="76" width="56" height="34" rx="8" fill="url(#blue)"/>
    <rect x="144" y="76" width="56" height="34" rx="8" fill="url(#blue)"/>
    <path d="M41 130h22m-22 17h48m58-17h22m-22 17h48" stroke="#6E91BE" stroke-width="6"/>
    <rect x="93" y="153" width="61" height="55" rx="17" fill="#345F9A"/>
    <rect x="88" y="148" width="61" height="55" rx="17" fill="url(#blue)"/>
    <path d="M102 167h33m-7-7 7 7-7 7m7 10h-33m7-7-7 7 7 7" stroke="#E9F3FF" stroke-width="4"/>
  </g>
</svg>
