<svg xmlns="http://www.w3.org/2000/svg" width="240" height="240" viewBox="0 0 240 240" fill="none">
  <title>확정된 여행 일정</title>
  <defs>
    <linearGradient id="blue" x1="0" y1="0" x2="1" y2="1">
      <stop stop-color="#A3CBFF"/>
      <stop offset=".52" stop-color="#7AA7FF"/>
      <stop offset="1" stop-color="#477FD6"/>
    </linearGradient>
    <linearGradient id="paper" x1="0" y1="0" x2="1" y2="1">
      <stop stop-color="#42628C"/>
      <stop offset=".7" stop-color="#2B4568"/>
      <stop offset="1" stop-color="#203653"/>
    </linearGradient>
  </defs>
  <g stroke-linecap="round" stroke-linejoin="round">
    <rect x="39" y="52" width="147" height="151" rx="22" fill="#203653"/>
    <rect x="33" y="46" width="147" height="151" rx="22" fill="url(#paper)"/>
    <path d="M55 46h103a22 22 0 0 1 22 22v29H33V68a22 22 0 0 1 22-22Z" fill="url(#blue)"/>
    <path d="M44 69a13 13 0 0 1 13-13h96" stroke="#E9F3FF" stroke-opacity=".45" stroke-width="3"/>
    <path d="M68 36v29m77-29v29" stroke="#8DBCF4" stroke-width="11"/>
    <path d="M65 36v23m77-23v23" stroke="#E9F3FF" stroke-opacity=".7" stroke-width="3"/>
    <path d="M57 120h18m20 0h18m20 0h18M57 142h18m20 0h18M57 164h18" stroke="#6E91BE" stroke-width="7"/>
    <circle cx="176" cy="173" r="37" fill="#345F9A"/>
    <circle cx="171" cy="168" r="37" fill="url(#blue)"/>
    <path d="M146 160a27 27 0 0 1 25-19" stroke="#E9F3FF" stroke-opacity=".45" stroke-width="3"/>
    <path d="m155 169 10 10 23-24" stroke="#E9F3FF" stroke-width="7"/>
  </g>
</svg>
